<?xml version="1.0" encoding="UTF-8" standalone="no"?>
<svg
   xmlns:dc="http://purl.org/dc/elements/1.1/"
   xmlns:cc="http://creativecommons.org/ns#"
   xmlns:rdf="http://www.w3.org/1999/02/22-rdf-syntax-ns#"
   xmlns:svg="http://www.w3.org/2000/svg"
   xmlns="http://www.w3.org/2000/svg"
   xml:space="preserve"
   enable-background="new 0 0 792 612"
   viewBox="0 0 352.70053 400"
   height="400"
   width="352.70053"
   y="0px"
   x="0px"
   id="Layer_1"
   version="1.0"><metadata
   id="metadata49"><rdf:RDF><cc:Work
       rdf:about=""><dc:format>image/svg+xml</dc:format><dc:type
         rdf:resource="http://purl.org/dc/dcmitype/StillImage" /><dc:title></dc:title></cc:Work></rdf:RDF></metadata><defs
   id="defs47" />
<g
   transform="matrix(0.95271894,0,0,0.95271894,-46.028711,-77.298847)"
   id="g22">
	<polygon
   transform="matrix(1.244593,0,0,1.244593,-11.817021,-122.53767)"
   style="fill:#e44f26"
   id="polygon2"
   points="75.383,467.266 48.313,163.646 345.763,163.646 318.665,467.217 196.856,500.986 " />
	<polygon
   transform="matrix(1.244593,0,0,1.244593,-11.817021,-122.53767)"
   style="fill:#f1662a"
   id="polygon4"
   points="318.623,188.471 197.038,188.471 197.038,475.175 295.465,447.887 " />
	<polygon
   transform="matrix(1.244593,0,0,1.244593,-11.817021,-122.53767)"
   style="fill:#ebebeb"
   id="polygon6"
   points="197.038,301.08 147.763,301.08 144.359,262.948 197.038,262.948 197.038,225.709 196.909,225.709 103.663,225.709 104.555,235.7 113.707,338.316 197.038,338.316 " />
	<polygon
   transform="matrix(1.244593,0,0,1.244593,-11.817021,-122.53767)"
   style="fill:#ebebeb"
   id="polygon8"
   points="196.875,397.834 155.403,386.635 152.751,356.937 132.6,356.937 115.371,356.937 120.588,415.404 196.866,436.58 197.038,436.532 197.038,397.788 " />
	
	
	
	
	<polygon
   transform="matrix(1.244593,0,0,1.244593,-11.817021,-122.53767)"
   style="fill:#ffffff"
   id="polygon18"
   points="273.433,301.08 196.909,301.08 196.909,338.316 242.763,338.316 238.441,386.61 196.909,397.82 196.909,436.562 273.249,415.404 273.808,409.114 282.559,311.079 283.467,301.08 " />
	<polygon
   transform="matrix(1.244593,0,0,1.244593,-11.817021,-122.53767)"
   style="fill:#ffffff"
   id="polygon20"
   points="196.909,225.709 196.909,248.837 196.909,262.856 196.909,262.948 286.736,262.948 286.856,262.948 287.603,254.578 289.299,235.7 290.19,225.709 " />
</g>




</svg>