<?xml version="1.0" encoding="UTF-8" standalone="no"?>
<svg
   xmlns:dc="http://purl.org/dc/elements/1.1/"
   xmlns:cc="http://creativecommons.org/ns#"
   xmlns:rdf="http://www.w3.org/1999/02/22-rdf-syntax-ns#"
   xmlns:svg="http://www.w3.org/2000/svg"
   xmlns="http://www.w3.org/2000/svg"
   version="1.0"
   id="Layer_1"
   x="0px"
   y="0px"
   width="176.35027"
   height="200"
   viewBox="0 0 176.35027 200"
   enable-background="new 0 0 792 612"
   xml:space="preserve"><metadata
   id="metadata49"><rdf:RDF><cc:Work
       rdf:about=""><dc:format>image/svg+xml</dc:format><dc:type
         rdf:resource="http://purl.org/dc/dcmitype/StillImage" /><dc:title></dc:title></cc:Work></rdf:RDF></metadata><defs
   id="defs47" />
<g
   id="g22"
   transform="matrix(0.47635947,0,0,0.47635947,-23.014355,-38.649424)">
	<polygon
   points="318.665,467.217 196.856,500.986 75.383,467.266 48.313,163.646 345.763,163.646 "
   id="polygon2"
   style="fill:#e44f26"
   transform="matrix(1.244593,0,0,1.244593,-11.817021,-122.53767)" />
	<polygon
   points="295.465,447.887 318.623,188.471 197.038,188.471 197.038,475.175 "
   id="polygon4"
   style="fill:#f1662a"
   transform="matrix(1.244593,0,0,1.244593,-11.817021,-122.53767)" />
	<polygon
   points="197.038,262.948 197.038,225.709 196.909,225.709 103.663,225.709 104.555,235.7 113.707,338.316 197.038,338.316 197.038,301.08 147.763,301.08 144.359,262.948 "
   id="polygon6"
   style="fill:#ebebeb"
   transform="matrix(1.244593,0,0,1.244593,-11.817021,-122.53767)" />
	<polygon
   points="132.6,356.937 115.371,356.937 120.588,415.404 196.866,436.58 197.038,436.532 197.038,397.788 196.875,397.834 155.403,386.635 152.751,356.937 "
   id="polygon8"
   style="fill:#ebebeb"
   transform="matrix(1.244593,0,0,1.244593,-11.817021,-122.53767)" />
	
	
	
	
	<polygon
   points="242.763,338.316 238.441,386.61 196.909,397.82 196.909,436.562 273.249,415.404 273.808,409.114 282.559,311.079 283.467,301.08 273.433,301.08 196.909,301.08 196.909,338.316 "
   id="polygon18"
   style="fill:#ffffff"
   transform="matrix(1.244593,0,0,1.244593,-11.817021,-122.53767)" />
	<polygon
   points="196.909,262.948 286.736,262.948 286.856,262.948 287.603,254.578 289.299,235.7 290.19,225.709 196.909,225.709 196.909,248.837 196.909,262.856 "
   id="polygon20"
   style="fill:#ffffff"
   transform="matrix(1.244593,0,0,1.244593,-11.817021,-122.53767)" />
</g>




</svg>