<?xml version="1.0" encoding="UTF-8" standalone="no"?>
<svg
   xmlns:dc="http://purl.org/dc/elements/1.1/"
   xmlns:cc="http://creativecommons.org/ns#"
   xmlns:rdf="http://www.w3.org/1999/02/22-rdf-syntax-ns#"
   xmlns:svg="http://www.w3.org/2000/svg"
   xmlns="http://www.w3.org/2000/svg"
   id="svg58"
   viewBox="0 0 149.99991 91.867754"
   version="1.2"
   height="122.49011"
   width="200">
  <metadata
     id="metadata62">
    <rdf:RDF>
      <cc:Work
         rdf:about="">
        <dc:format>image/svg+xml</dc:format>
        <dc:type
           rdf:resource="http://purl.org/dc/dcmitype/StillImage" />
        <dc:title></dc:title>
      </cc:Work>
    </rdf:RDF>
  </metadata>
  <defs
     id="defs36">
    <clipPath
       id="a">
      <path
         id="path2"
         d="m 239.03,226.605 -42.13,24.317 c -1.578,0.91 -2.546,2.59 -2.546,4.406 v 48.668 c 0,1.817 0.968,3.496 2.546,4.406 l 42.133,24.336 c 1.575,0.907 3.517,0.907 5.09,0 l 42.126,-24.336 c 1.57,-0.91 2.54,-2.59 2.54,-4.406 v -48.668 c 0,-1.816 -0.97,-3.496 -2.55,-4.406 l -42.12,-24.317 c -0.79,-0.453 -1.67,-0.68 -2.55,-0.68 -0.88,0 -1.76,0.227 -2.55,0.68" />
    </clipPath>
    <linearGradient
       gradientUnits="userSpaceOnUse"
       gradientTransform="matrix(-38.064915,77.652126,-77.652126,-38.064915,258.72325,244.62943)"
       x2="1.251"
       x1="-0.34799999"
       id="b">
      <stop
         id="stop5"
         stop-color="#3E863D"
         offset=".3" />
      <stop
         id="stop7"
         stop-color="#55934F"
         offset=".5" />
      <stop
         id="stop9"
         stop-color="#5AAD45"
         offset=".8" />
    </linearGradient>
    <clipPath
       id="c">
      <path
         id="path12"
         d="m 195.398,307.086 c 0.403,0.523 0.907,0.976 1.5,1.316 l 36.14,20.875 6.02,3.46 c 0.9,0.52 1.926,0.74 2.934,0.665 0.336,-0.027 0.672,-0.09 1,-0.183 l 44.434,-81.36 c -0.34,-0.37 -0.738,-0.68 -1.184,-0.94 l -27.586,-15.93 -14.582,-8.39 c -0.414,-0.24 -0.863,-0.41 -1.32,-0.53 z m 0,0" />
    </clipPath>
    <linearGradient
       gradientUnits="userSpaceOnUse"
       gradientTransform="matrix(106.8057,-78.916731,78.916731,106.8057,235.18824,285.39477)"
       x2="0.58200002"
       x1="-0.456"
       id="d">
      <stop
         id="stop15"
         stop-color="#3E863D"
         offset=".57" />
      <stop
         id="stop17"
         stop-color="#619857"
         offset=".72" />
      <stop
         id="stop19"
         stop-color="#76AC64"
         offset="1" />
    </linearGradient>
    <clipPath
       id="e">
      <path
         id="path22"
         d="m 241.066,225.953 c -0.707,0.07 -1.398,0.29 -2.035,0.652 l -42.01,24.247 45.3,82.51 c 0.63,-0.09 1.25,-0.3 1.81,-0.624 l 42.13,-24.336 c 1.3,-0.754 2.19,-2.03 2.46,-3.476 l -46.18,-78.89 c -0.34,-0.067 -0.68,-0.102 -1.03,-0.102 -0.14,0 -0.28,0.007 -0.42,0.02" />
    </clipPath>
    <linearGradient
       gradientUnits="userSpaceOnUse"
       gradientTransform="matrix(97.417,0,0,97.417,192.862,279.652)"
       x2="0.98400003"
       x1="0.043000001"
       id="f">
      <stop
         id="stop25"
         stop-color="#6BBF47"
         offset=".16" />
      <stop
         id="stop27"
         stop-color="#79B461"
         offset=".38" />
      <stop
         id="stop29"
         stop-color="#75AC64"
         offset=".47" />
      <stop
         id="stop31"
         stop-color="#659E5A"
         offset=".7" />
      <stop
         id="stop33"
         stop-color="#3E863D"
         offset=".9" />
    </linearGradient>
  </defs>
  <path
     id="path38"
     d="m 74.139179,91.867756 c -0.495065,0 -0.986735,-0.12987 -1.42076,-0.37978 l -4.522355,-2.6774 c -0.675455,-0.37774 -0.345865,-0.51134 -0.123085,-0.58831 0.900605,-0.31534 1.08337,-0.38655 2.04467,-0.93248 0.10105,-0.0576 0.23329,-0.0373 0.33671,0.0238 l 3.47425,2.06163 c 0.12546,0.0678 0.303475,0.0678 0.419785,0 l 13.546376,-7.81926 c 0.12546,-0.0712 0.20684,-0.21701 0.20684,-0.36621 v -15.63174 c 0,-0.15598 -0.08138,-0.295 -0.20955,-0.37299 l -13.540956,-7.81248 c -0.12546,-0.0746 -0.29161,-0.0746 -0.41707,0 l -13.53824,7.81248 c -0.131225,0.0746 -0.21464,0.2204 -0.21464,0.3696 v 15.63174 c 0,0.1492 0.08138,0.29161 0.21023,0.36282 l 3.70957,2.14301 c 2.014155,1.00707 3.24503,-0.17972 3.24503,-1.37329 v -15.42829 c 0,-0.22041 0.17293,-0.38995 0.393335,-0.38995 h 1.71576 c 0.213625,0 0.38995,0.16954 0.38995,0.38995 v 15.43507 c 0,2.68554 -1.46484,4.22837 -4.011355,4.22837 -0.783285,0 -1.400415,0 -3.12296,-0.84771 l -3.55359,-2.04806 c -0.87823,-0.50863 -1.42076,-1.45806 -1.42076,-2.47192 v -15.63175 c 0,-1.01725 0.54253,-1.96669 1.42076,-2.46853 l 13.55994,-7.82265 c 0.85788,-0.48489 1.9972,-0.48489 2.8483,0 l 13.542986,7.82604 c 0.874835,0.50523 1.42076,1.45128 1.42076,2.46853 v 15.63174 c 0,1.01385 -0.545925,1.9599 -1.42076,2.46852 l -13.542986,7.82265 c -0.43403,0.25093 -0.9257,0.37978 -1.427545,0.37978"
     style="fill:#689f63;stroke-width:0.33908328" />
  <path
     style="fill:#689f63;stroke-width:0.33908328"
     id="path40"
     d="m 78.323464,81.096436 c -5.927175,0 -7.169915,-2.72081 -7.169915,-5.00284 0,-0.21701 0.174965,-0.38994 0.39232,-0.38994 h 1.74967 c 0.193275,0 0.356035,0.14072 0.386555,0.33162 0.264485,1.7829 1.05116,2.68215 4.63527,2.68215 2.855081,0 4.068996,-0.64494 4.068996,-2.15894 0,-0.87145 -0.345865,-1.5191 -4.781071,-1.95312 -3.709575,-0.36621 -6.001775,-1.1834 -6.001775,-4.15038 0,-2.73301 2.305765,-4.36061 6.167925,-4.36061 4.336876,0 6.486661,1.50553 6.757931,4.74038 0.01015,0.1119 -0.0305,0.2204 -0.105115,0.30178 -0.0746,0.078 -0.179715,0.12547 -0.288225,0.12547 h -1.75984 c -0.183105,0 -0.342475,-0.12886 -0.379775,-0.30518 -0.423855,-1.87513 -1.447885,-2.47531 -4.231761,-2.47531 -3.116175,0 -3.47899,1.08507 -3.47899,1.89887 0,0.98673 0.427245,1.27495 4.631876,1.83105 4.163945,0.5527 6.1408,1.3326 6.1408,4.25888 0,2.95003 -2.461745,4.64205 -6.754541,4.64205" />
  <path
     id="path42"
     d="m 32.190845,30.703916 c 0,-0.62391 -0.328911,-1.19696 -0.867375,-1.50723 l -14.362212,-8.26346 c -0.242444,-0.14241 -0.51405,-0.21701 -0.789385,-0.22718 h -0.148519 c -0.275336,0.0102 -0.546941,0.0848 -0.793455,0.22718 l -14.36153404,8.26346 c -0.53507348,0.31196 -0.86873143517,0.88501 -0.86873143517,1.50892 L 0.03116827,52.963036 c 0,0.30856 0.15936914,0.59678 0.43063578,0.74937 0.264485,0.16276 0.59678665,0.16276 0.86127155,0 l 8.5381176,-4.88958 c 0.5391428,-0.32077 0.8680538,-0.88772 0.8680538,-1.50553 v -10.39798 c 0,-0.62053 0.328911,-1.19358 0.866358,-1.50214 l 3.634972,-2.0935 c 0.269911,-0.15598 0.566269,-0.23329 0.868054,-0.23329 0.297037,0 0.600177,0.0766 0.862627,0.23295 l 3.633278,2.09282 c 0.537786,0.30857 0.868053,0.88162 0.868053,1.50214 v 10.39731 c 0,0.61713 0.333319,1.18679 0.869749,1.50553 l 8.532692,4.88618 c 0.267875,0.15937 0.601194,0.15937 0.868053,0 0.263128,-0.15258 0.429957,-0.4408 0.429957,-0.74937 z m 67.7719,11.58851 c 0,0.15496 -0.0824,0.29839 -0.217015,0.37503 l -4.93298,2.84355 c -0.13394,0.077 -0.299415,0.077 -0.43301,0 l -4.933665,-2.84355 c -0.13563,-0.077 -0.21701,-0.22041 -0.21701,-0.37503 v -5.69524 c 0,-0.1553 0.08138,-0.2984 0.21362,-0.37639 l 4.93027,-2.8483 c 0.135635,-0.078 0.301785,-0.078 0.43742,0 l 4.93366,2.8483 c 0.135635,0.078 0.217015,0.22109 0.217015,0.37639 z M 101.29534,0.10978451 c -0.26923,-0.149875 -0.59679,-0.145806 -0.86263,0.0092 -0.26448,0.155978 -0.42792,0.440808 -0.42792,0.749374 V 22.908776 c 0,0.21702 -0.115285,0.41708 -0.30314,0.52558 -0.186495,0.10851 -0.418765,0.10851 -0.60696,0 l -3.59767,-2.07214 c -0.535755,-0.30992 -1.19561,-0.30992 -1.733395,0 l -14.36696,8.29161 c -0.53677,0.30856 -0.868056,0.88161 -0.868056,1.49875 v 16.58795 c 0,0.62052 0.331286,1.19018 0.868056,1.50214 l 14.36696,8.29736 c 0.53643,0.30857 1.196965,0.30857 1.73509,0 l 14.366955,-8.30075 c 0.53575,-0.31196 0.86805,-0.88162 0.86805,-1.50214 V 6.3960495 c 0,-0.629339 -0.34247,-1.208154 -0.89179,-1.515703 z M 149.13762,36.447306 c 0.53371,-0.30992 0.86229,-0.88229 0.86229,-1.49942 v -4.02018 c 0,-0.61848 -0.32891,-1.18916 -0.86365,-1.50044 l -14.2754,-8.2872 c -0.53915,-0.31195 -1.20036,-0.31195 -1.7395,0 l -14.36357,8.29059 c -0.53914,0.31196 -0.86805,0.88162 -0.86805,1.50214 v 16.58117 c 0,0.62392 0.33569,1.20036 0.87483,1.50892 l 14.27202,8.13461 c 0.52558,0.30178 1.16983,0.30517 1.7022,0.0102 l 8.63306,-4.79803 c 0.27126,-0.15259 0.44419,-0.44081 0.44419,-0.75276 0,-0.31196 -0.16615,-0.60357 -0.43741,-0.75616 l -14.45173,-8.29397 c -0.27127,-0.15259 -0.43742,-0.44081 -0.43742,-0.74938 v -5.20153 c 0,-0.3106 0.16276,-0.59679 0.43403,-0.75141 l 4.49624,-2.59399 c 0.26788,-0.15598 0.59679,-0.15598 0.86466,0 l 4.49964,2.59399 c 0.26787,0.15259 0.43403,0.44081 0.43403,0.74937 v 4.08935 c 0,0.30856 0.16615,0.59678 0.43402,0.75276 0.26788,0.15259 0.60018,0.15259 0.86806,-0.003 z m 0,0"
     style="fill:#333333;fill-rule:evenodd;stroke-width:0.33908328" />
  <path
     id="path44"
     d="m 133.78087,35.671486 c 0.10173,-0.06 0.22923,-0.06 0.33231,0 l 2.75674,1.5903 c 0.10308,0.0597 0.16615,0.16954 0.16615,0.28822 v 3.18399 c 0,0.11868 -0.0631,0.22854 -0.16615,0.28822 l -2.75674,1.5903 c -0.10308,0.06 -0.23058,0.06 -0.33231,0 l -2.75505,-1.5903 c -0.10511,-0.0597 -0.16954,-0.16954 -0.16954,-0.28822 v -3.18399 c 0,-0.11868 0.061,-0.22854 0.16615,-0.28822 z m 0,0"
     style="fill:#689f63;fill-rule:evenodd;stroke-width:0.33908328" />
  <g
     id="g48"
     transform="matrix(0.33908329,0,0,0.33908329,-26.552622,-55.615166)"
     clip-path="url(#a)">
    <path
       id="path46"
       d="m 331.363,246.793 -118.715,-58.19 -60.87,124.174 118.712,58.193 z m 0,0"
       style="fill:url(#b)" />
  </g>
  <g
     id="g52"
     transform="matrix(0.33908329,0,0,0.33908329,-26.552622,-55.615166)"
     clip-path="url(#c)">
    <path
       id="path50"
       d="m 144.07,264.004 83.825,113.453 110.86,-81.906 -83.83,-113.45 z m 0,0"
       style="fill:url(#d)" />
  </g>
  <g
     id="g56"
     transform="matrix(0.33908329,0,0,0.33908329,-26.552622,-55.615166)"
     clip-path="url(#e)">
    <path
       id="path54"
       d="m 197.02,225.934 v 107.43 h 91.683 v -107.43 z m 0,0"
       style="fill:url(#f)" />
  </g>
</svg>
