<?xml version="1.0" encoding="UTF-8" standalone="no"?>
<svg
   xmlns:dc="http://purl.org/dc/elements/1.1/"
   xmlns:cc="http://creativecommons.org/ns#"
   xmlns:rdf="http://www.w3.org/1999/02/22-rdf-syntax-ns#"
   xmlns:svg="http://www.w3.org/2000/svg"
   xmlns="http://www.w3.org/2000/svg"
   width="400"
   height="154.05681"
   version="1.2"
   viewBox="0 0 299.99982 115.54282"
   id="svg58">
  <metadata
     id="metadata62">
    <rdf:RDF>
      <cc:Work
         rdf:about="">
        <dc:format>image/svg+xml</dc:format>
        <dc:type
           rdf:resource="http://purl.org/dc/dcmitype/StillImage" />
        <dc:title></dc:title>
      </cc:Work>
    </rdf:RDF>
  </metadata>
  <defs
     id="defs36">
    <clipPath
       id="a">
      <path
         d="m 239.03,226.605 -42.13,24.317 c -1.578,0.91 -2.546,2.59 -2.546,4.406 v 48.668 c 0,1.817 0.968,3.496 2.546,4.406 l 42.133,24.336 c 1.575,0.907 3.517,0.907 5.09,0 l 42.126,-24.336 c 1.57,-0.91 2.54,-2.59 2.54,-4.406 v -48.668 c 0,-1.816 -0.97,-3.496 -2.55,-4.406 l -42.12,-24.317 c -0.79,-0.453 -1.67,-0.68 -2.55,-0.68 -0.88,0 -1.76,0.227 -2.55,0.68"
         id="path2" />
    </clipPath>
    <linearGradient
       id="b"
       x1="-0.34799999"
       x2="1.251"
       gradientTransform="matrix(-38.064915,77.652126,-77.652126,-38.064915,258.72325,244.62943)"
       gradientUnits="userSpaceOnUse">
      <stop
         offset=".3"
         stop-color="#3E863D"
         id="stop5" />
      <stop
         offset=".5"
         stop-color="#55934F"
         id="stop7" />
      <stop
         offset=".8"
         stop-color="#5AAD45"
         id="stop9" />
    </linearGradient>
    <clipPath
       id="c">
      <path
         d="m 195.398,307.086 c 0.403,0.523 0.907,0.976 1.5,1.316 l 36.14,20.875 6.02,3.46 c 0.9,0.52 1.926,0.74 2.934,0.665 0.336,-0.027 0.672,-0.09 1,-0.183 l 44.434,-81.36 c -0.34,-0.37 -0.738,-0.68 -1.184,-0.94 l -27.586,-15.93 -14.582,-8.39 c -0.414,-0.24 -0.863,-0.41 -1.32,-0.53 z m 0,0"
         id="path12" />
    </clipPath>
    <linearGradient
       id="d"
       x1="-0.456"
       x2="0.58200002"
       gradientTransform="matrix(106.8057,-78.916731,78.916731,106.8057,235.18824,285.39477)"
       gradientUnits="userSpaceOnUse">
      <stop
         offset=".57"
         stop-color="#3E863D"
         id="stop15" />
      <stop
         offset=".72"
         stop-color="#619857"
         id="stop17" />
      <stop
         offset="1"
         stop-color="#76AC64"
         id="stop19" />
    </linearGradient>
    <clipPath
       id="e">
      <path
         d="m 241.066,225.953 c -0.707,0.07 -1.398,0.29 -2.035,0.652 l -42.01,24.247 45.3,82.51 c 0.63,-0.09 1.25,-0.3 1.81,-0.624 l 42.13,-24.336 c 1.3,-0.754 2.19,-2.03 2.46,-3.476 l -46.18,-78.89 c -0.34,-0.067 -0.68,-0.102 -1.03,-0.102 -0.14,0 -0.28,0.007 -0.42,0.02"
         id="path22" />
    </clipPath>
    <linearGradient
       id="f"
       x1="0.043000001"
       x2="0.98400003"
       gradientTransform="matrix(97.417,0,0,97.417,192.862,279.652)"
       gradientUnits="userSpaceOnUse">
      <stop
         offset=".16"
         stop-color="#6BBF47"
         id="stop25" />
      <stop
         offset=".38"
         stop-color="#79B461"
         id="stop27" />
      <stop
         offset=".47"
         stop-color="#75AC64"
         id="stop29" />
      <stop
         offset=".7"
         stop-color="#659E5A"
         id="stop31" />
      <stop
         offset=".9"
         stop-color="#3E863D"
         id="stop33" />
    </linearGradient>
  </defs>
  <path
     d="m 64.382056,61.407834 c 0,-1.24782 -0.657822,-2.39392 -1.73475,-3.01445 L 33.922882,41.866464 c -0.484889,-0.28483 -1.0281,-0.43402 -1.578771,-0.45437 h -0.297037 c -0.550672,0.0204 -1.093883,0.16954 -1.58691,0.45437 L 1.7370964,58.393384 c -1.07014697,0.62392 -1.73746287517,1.77002 -1.73746287517,3.01784 L 0.06270301,105.92608 c 0,0.61713 0.31873829,1.19357 0.86127155,1.49875 0.52897004,0.32552 1.19357324,0.32552 1.72254314,0 L 19.722753,97.645664 c 1.078284,-0.64154 1.736106,-1.77544 1.736106,-3.01106 v -20.79597 c 0,-1.24105 0.657822,-2.38715 1.732716,-3.00428 l 7.269945,-4.187 c 0.539821,-0.31196 1.132538,-0.46658 1.736107,-0.46658 0.594074,0 1.200355,0.15327 1.725255,0.4659 l 7.266555,4.18564 c 1.075573,0.61714 1.736107,1.76324 1.736107,3.00428 v 20.79462 c 0,1.23427 0.666637,2.37359 1.739497,3.01106 l 17.065384,9.772376 c 0.535751,0.31874 1.202389,0.31874 1.736106,0 0.526257,-0.30517 0.859915,-0.88161 0.859915,-1.49874 z m 135.543794,23.17702 c 0,0.30993 -0.1648,0.59679 -0.43403,0.75006 l -9.86596,5.6871 c -0.26788,0.15394 -0.59883,0.15394 -0.86602,0 l -9.86733,-5.6871 c -0.27126,-0.15395 -0.43402,-0.44081 -0.43402,-0.75006 v -11.39048 c 0,-0.3106 0.16276,-0.59679 0.42724,-0.75277 l 9.86054,-5.6966 c 0.27127,-0.15597 0.60357,-0.15597 0.87484,0 l 9.86732,5.6966 c 0.27127,0.15598 0.43403,0.44217 0.43403,0.75277 z m 2.66519,-84.36527445 c -0.53846,-0.29975 -1.19357,-0.291612 -1.72525,0.01831 -0.52897,0.311957 -0.85585,0.88161705 -0.85585,1.49874805 V 45.817464 c 0,0.43403 -0.23057,0.83415 -0.60628,1.05116 -0.37299,0.21701 -0.83753,0.21701 -1.21392,0 l -7.19534,-4.14428 c -1.07151,-0.61984 -2.39122,-0.61984 -3.46679,0 l -28.73392,16.58321 c -1.07354,0.61713 -1.73611,1.76323 -1.73611,2.9975 v 33.17591 c 0,1.24104 0.66257,2.38036 1.73611,3.00427 l 28.73392,16.594736 c 1.07286,0.61713 2.39393,0.61713 3.47018,0 L 219.7317,98.478454 c 1.07151,-0.62391 1.73611,-1.76323 1.73611,-3.00428 V 12.79211 c 0,-1.258677 -0.68495,-2.416308 -1.78358,-3.0314054 z M 298.2756,72.894624 c 1.06743,-0.61985 1.72458,-1.76459 1.72458,-2.99885 v -8.04035 c 0,-1.23697 -0.65782,-2.37833 -1.72729,-3.00088 l -28.55081,-16.5744 c -1.07829,-0.62391 -2.40071,-0.62391 -3.479,0 l -28.72714,16.58118 c -1.07828,0.62391 -1.7361,1.76323 -1.7361,3.00428 v 33.16234 c 0,1.24783 0.67138,2.40071 1.74967,3.01784 L 266.07354,114.315 c 1.05116,0.60357 2.33967,0.61035 3.4044,0.0203 l 17.26612,-9.59605 c 0.54253,-0.30518 0.88839,-0.88162 0.88839,-1.50553 0,-0.62392 -0.3323,-1.20714 -0.87483,-1.51231 L 257.85416,85.133454 c -0.54253,-0.30517 -0.87483,-0.88162 -0.87483,-1.49875 v -10.40307 c 0,-0.6212 0.32552,-1.19358 0.86805,-1.50282 l 8.99249,-5.18797 c 0.53575,-0.31196 1.19357,-0.31196 1.72932,0 l 8.99927,5.18797 c 0.53575,0.30518 0.86806,0.88162 0.86806,1.49875 v 8.17869 c 0,0.61713 0.3323,1.19357 0.86805,1.50553 0.53575,0.30517 1.20035,0.30517 1.73611,-0.007 z m 0,0"
     id="path42"
     style="fill:#333333;fill-rule:evenodd;stroke-width:0.67816657" />
  <path
     d="m 267.56211,71.342974 c 0.20345,-0.12003 0.45845,-0.12003 0.66461,0 l 5.51349,3.1806 c 0.20616,0.11936 0.3323,0.33909 0.3323,0.57645 v 6.36798 c 0,0.23736 -0.12614,0.45708 -0.3323,0.57644 l -5.51349,3.1806 c -0.20616,0.12004 -0.46116,0.12004 -0.66461,0 l -5.5101,-3.1806 c -0.21023,-0.11936 -0.33908,-0.33908 -0.33908,-0.57644 v -6.36798 c 0,-0.23736 0.12207,-0.45709 0.3323,-0.57645 z m 0,0"
     id="path44"
     style="fill:#689f63;fill-rule:evenodd;stroke-width:0.67816657" />
  <g
     clip-path="url(#a)"
     transform="matrix(0.67816658,0,0,0.67816658,-53.104878,-111.23032)"
     id="g48">
    <path
       d="m 331.363,246.793 -118.715,-58.19 -60.87,124.174 118.712,58.193 z m 0,0"
       id="path46"
       style="fill:url(#b)" />
  </g>
  <g
     clip-path="url(#c)"
     transform="matrix(0.67816658,0,0,0.67816658,-53.104878,-111.23032)"
     id="g52">
    <path
       d="m 144.07,264.004 83.825,113.453 110.86,-81.906 -83.83,-113.45 z m 0,0"
       id="path50"
       style="fill:url(#d)" />
  </g>
  <g
     clip-path="url(#e)"
     transform="matrix(0.67816658,0,0,0.67816658,-53.104878,-111.23032)"
     id="g56">
    <path
       d="m 197.02,225.934 v 107.43 h 91.683 v -107.43 z m 0,0"
       id="path54"
       style="fill:url(#f)" />
  </g>
</svg>
