<?xml version="1.0" encoding="UTF-8" standalone="no"?>
<svg
   xmlns:dc="http://purl.org/dc/elements/1.1/"
   xmlns:cc="http://creativecommons.org/ns#"
   xmlns:rdf="http://www.w3.org/1999/02/22-rdf-syntax-ns#"
   xmlns:svg="http://www.w3.org/2000/svg"
   xmlns="http://www.w3.org/2000/svg"
   xmlns:xlink="http://www.w3.org/1999/xlink"
   id="svg33"
   xml:space="preserve"
   viewBox="0 0 128.00055 113.9324"
   height="113.9324"
   width="128.00055"
   y="0px"
   x="0px"
   version="1.1"><metadata
   id="metadata39"><rdf:RDF><cc:Work
       rdf:about=""><dc:format>image/svg+xml</dc:format><dc:type
         rdf:resource="http://purl.org/dc/dcmitype/StillImage" /><dc:title></dc:title></cc:Work></rdf:RDF></metadata><defs
   id="defs37" />
<style
   id="style2"
   type="text/css">
  .st0{fill:url(#SVGID_1_);}
  .st1{fill:url(#SVGID_2_);}
  .st2{opacity:0.07;clip-path:url(#SVGID_4_);}
  .st3{opacity:0.07;clip-path:url(#SVGID_6_);}
  .st4{fill:#FFFFFF;}
  .st5{fill:#242424;}
</style>
<g
   transform="translate(5.75e-4,-7.0336)"
   id="BASE">
  <linearGradient
   y2="120.7894"
   x2="63.999699"
   y1="7.0335999"
   x1="63.999699"
   gradientUnits="userSpaceOnUse"
   id="SVGID_1_">
    <stop
   id="stop4"
   style="stop-color:#4387FD"
   offset="0" />
    <stop
   id="stop6"
   style="stop-color:#4683EA"
   offset="1" />
  </linearGradient>
  <path
   style="fill:url(#SVGID_1_)"
   id="path9"
   d="M 27.7906,115.2166 1.54,69.7493 c -2.0541,-3.5578 -2.0541,-7.9412 0,-11.499 L 27.7906,12.7831 c 2.0541,-3.5578 5.8503,-5.7495 9.9585,-5.7495 h 52.5012 c 4.1082,0 7.9044,2.1917 9.9585,5.7495 l 26.2506,45.4672 c 2.0541,3.5578 2.0541,7.9412 0,11.499 l -26.2506,45.4672 c -2.0541,3.5578 -5.8503,5.7495 -9.9585,5.7495 H 37.7491 c -4.1082,1e-4 -7.9043,-2.1916 -9.9585,-5.7494 z"
   class="st0" />
</g>
<g
   transform="translate(5.75e-4,-7.0336)"
   id="shadow">
  <g
   id="g20">
    <defs
   id="defs13">
      <path
   d="M 27.7911,115.2166 1.5406,69.7493 c -2.0541,-3.5578 -2.0541,-7.9412 0,-11.499 L 27.7911,12.7831 c 2.0541,-3.5578 5.8502,-5.7495 9.9585,-5.7495 h 52.501 c 4.1082,0 7.9044,2.1917 9.9585,5.7495 l 26.2505,45.4672 c 2.0541,3.5578 2.0541,7.9412 0,11.499 l -26.2505,45.4672 c -2.0541,3.5578 -5.8502,5.7495 -9.9585,5.7495 h -52.501 c -4.1083,1e-4 -7.9044,-2.1916 -9.9585,-5.7494 z"
   id="SVGID_5_" />
    </defs>
    <clipPath
   id="SVGID_2_">
      <use
   height="100%"
   width="100%"
   y="0"
   x="0"
   id="use15"
   style="overflow:visible"
   xlink:href="#SVGID_5_" />
    </clipPath>
    <polygon
   id="polygon18"
   clip-path="url(#SVGID_2_)"
   points="64.6667,39.2499 44.2083,54.7082 57,67.4999 44.1667,68.7499 56.1458,80.7291 44.0195,82.2486 84.5417,122.7707 97.5625,121.2811 120.1666,82.0832 83.9583,45.8749 "
   style="opacity:0.07000002" />
  </g>
</g>
<g
   transform="translate(5.75e-4,-7.0336)"
   id="art">
  <g
   id="g29">
    <path
   style="fill:#ffffff"
   id="path23"
   d="M 64,34.2303 44.0003,45.7771 V 54.707 L 64,66.2539 83.9997,54.707 V 45.7771 Z M 75.9461,50.1103 75.9377,50.1054 64,56.9977 52.0622,50.1054 52.0538,50.1103 V 50.1006 L 52.0622,50.1054 64,43.2132 l 11.9377,6.8922 0.0084,-0.0048 z"
   class="st4" />
    <polygon
   style="fill:#ffffff"
   id="polygon25"
   points="64,80.2288 84,68.6821 84,59.7521 64,71.299 44,59.7521 44,68.6821 "
   class="st4" />
    <polygon
   style="fill:#ffffff"
   id="polygon27"
   points="64,93.7695 84,82.2227 84,73.2928 64,84.8397 44,73.2928 44,82.2227 "
   class="st4" />
  </g>
</g>
<g
   transform="translate(5.75e-4,-7.0336)"
   id="Guides">
</g>
</svg>